<svg xmlns="http://www.w3.org/2000/svg" viewBox="0 0 871.2 304.18"><defs><style>.cls-1{fill:#fff;}.cls-2{fill:#ed1c24;}.cls-3{fill:#150000;}</style></defs><title>Asset 1</title><g id="Layer_2" data-name="Layer 2"><g id="Layer_1-2" data-name="Layer 1"><path class="cls-1" d="M82.5,76.56H32.07v31.79H91.63V133H0V0H91.81V24.76H32.07V52.81H82.5Z"/><path class="cls-1" d="M136.76,108.35h55.82V133H104.7V0h32.06Z"/><path class="cls-1" d="M288.6,76.56H238.17v31.79h59.57V133H206.1V0h91.82V24.76H238.17V52.81H288.6Z"/><path class="cls-1" d="M362.42,96.84,388.91,0h35.82L380,133H344.88L300.48,0H336Z"/><path class="cls-2" d="M503.11,108.17H459.17L451.49,133H417.23L466,0h30.15l49.15,133H510.88ZM466.84,83.41h28.6L481.09,37.27Z"/><path class="cls-1" d="M648.46,24.76H608.54V133H576.47V24.76H537.28V0H648.46Z"/><path class="cls-1" d="M744.48,76.56H694.05v31.79h59.57V133H662V0H753.8V24.76H694.05V52.81h50.43Z"/><path class="cls-1" d="M766.68,133V0h42.85a63,63,0,0,1,31.7,8,56.17,56.17,0,0,1,22,22.57,68.2,68.2,0,0,1,8,32.66v6.12q0,18.27-7.72,32.75a56.43,56.43,0,0,1-21.75,22.66A61.65,61.65,0,0,1,810.44,133ZM798.75,24.76v83.59h11.14q13.8,0,21.2-9.82t7.4-29.19V63.58q0-19.28-7.4-29t-21.56-9.77Z"/><path class="cls-3" d="M82.5,245.89H32.07v31.79H91.63v24.67H0v-133H91.81v24.76H32.07v28H82.5Z"/><path class="cls-3" d="M173.31,267q0-7-5-11t-17.5-8.13a167.67,167.67,0,0,1-20.46-8.13q-25.86-12.69-25.86-34.9a31.29,31.29,0,0,1,6.44-19.5q6.45-8.46,18.23-13.16a70.87,70.87,0,0,1,26.49-4.7,62.06,62.06,0,0,1,25.72,5.11,40.74,40.74,0,0,1,17.68,14.57,38.1,38.1,0,0,1,6.3,21.61h-32q0-8.13-5-12.61t-13.48-4.47q-8.58,0-13.56,3.79a11.62,11.62,0,0,0-5,9.64q0,5.11,5.48,9.27T161.16,223a118.07,118.07,0,0,1,22.65,9.54q21.57,12.44,21.56,34.26,0,17.46-13.15,27.41t-36.09,10a71.55,71.55,0,0,1-29.28-5.8q-13.11-5.81-19.73-15.9a41.39,41.39,0,0,1-6.63-23.25h32.16q0,10.68,5.53,15.76t17.95,5.07q8,0,12.56-3.43A11.28,11.28,0,0,0,173.31,267Z"/><path class="cls-3" d="M326.24,194.09H286.32V302.35H254.25V194.09H215.06V169.33H326.24Z"/><path class="cls-3" d="M404.35,277.5H360.41l-7.68,24.85H318.47l48.79-133h30.15l49.15,133H412.12Zm-36.27-24.76h28.6l-14.35-46.13Z"/><path class="cls-3" d="M549.7,194.09H509.78V302.35H477.71V194.09H438.52V169.33H549.7Z"/><path class="cls-3" d="M645.72,245.89H595.29v31.79h59.57v24.67H563.23v-133H655v24.76H595.29v28h50.43Z"/></g></g></svg>